<?xml version="1.0" encoding="utf-8"?>
<!-- Generator: Adobe Illustrator 18.0.0, SVG Export Plug-In . SVG Version: 6.00 Build 0)  -->
<!DOCTYPE svg PUBLIC "-//W3C//DTD SVG 1.1//EN" "http://www.w3.org/Graphics/SVG/1.1/DTD/svg11.dtd">
<svg version="1.1" id="Ebene_1" xmlns="http://www.w3.org/2000/svg" xmlns:xlink="http://www.w3.org/1999/xlink" x="0px" y="0px"
	 viewBox="52.7729 -26.8528 563.1452 792.2793" enable-background="new 52.7729 -26.8528 563.1452 792.2793" xml:space="preserve">
<g>
	<path fill="#C6C6C6" d="M408.2852,765.4265c-51.8541,0-103.6482,0-155.4511,0c0-50.7883,0-101.5765,0-152.3824
		c51.8135,0,103.6358,0,155.4511,0C408.2852,663.8266,408.2852,714.6266,408.2852,765.4265z"/>
</g>
<g>
	<path fill="#C6C6C6" d="M523.6143,680.8602c-29.9341,0-59.8082,0-89.6912,0c0-29.3483,0-58.6966,0-88.0624
		c29.8935,0,59.7958,0,89.6912,0C523.6143,622.1402,523.6143,651.5002,523.6143,680.8602z"/>
</g>
<g>
	<path fill="#C6C6C6" d="M568.6154,572.1537c-21.2141,0-42.3682,0-63.5311,0c0-20.7883,0-41.5766,0-62.3825
		c21.1735,0,42.3559,0,63.5311,0C568.6154,530.5538,568.6154,551.3538,568.6154,572.1537z"/>
</g>
<path fill="#C6C6C6" d="M330.9055-26.8528c-168.2485,0-274.6934,119.0267-278.1326,282.7042v0.0112h168.2602
	c0-81.2674,35.4849-148.7861,117.8951-148.7861c60.6509,0,97.2899,33.1883,97.2899,103.0042
	c3.4287,123.6205-167.1057,105.3015-183.1401,303.3095v51.5191h154.5234v-43.5076
	c19.4736-138.5004,208.3167-108.7184,208.3167-327.3435C615.918,107.0654,546.0911-26.8528,330.9055-26.8528z"/>
</svg>
