<?xml version="1.0" encoding="utf-8"?>
<!-- Generator: Adobe Illustrator 18.0.0, SVG Export Plug-In . SVG Version: 6.00 Build 0)  -->
<!DOCTYPE svg PUBLIC "-//W3C//DTD SVG 1.1//EN" "http://www.w3.org/Graphics/SVG/1.1/DTD/svg11.dtd">
<svg version="1.1" id="Ebene_1" xmlns="http://www.w3.org/2000/svg" xmlns:xlink="http://www.w3.org/1999/xlink" x="0px" y="0px"
	 viewBox="224.4395 264.1888 146.7323 146.7323" enable-background="new 224.4395 264.1888 146.7323 146.7323" xml:space="preserve"
	>
<path fill="none" stroke="#706F6F" stroke-width="3" stroke-linecap="round" stroke-linejoin="round" d="M226.9395,394.2479
	c0,7.7953,6.378,14.1732,14.1732,14.1732H299v-50.1637h-19.5081V328H299v-12.818c0-10.3867,3.1826-19.0356,9.2285-25.0114
	c5.8445-5.7768,14.059-8.83,23.7804-8.83c8.9737,0,16.1897,0.6844,17.9956,0.9245l3.5385,0.459v27.6712l-16.0647,0.0071
	c-3.1193,0-5.2851,0.5478-6.1952,1.6287c-0.7807,0.9276-1.2294,2.6396-1.2294,5.3875V328h23.0853l-3.9398,30.2574h-19.1454v50.1637
	h24.4449c7.7953,0,14.1732-6.3779,14.1732-14.1732V280.8621c0-7.7953-6.378-14.1732-14.1732-14.1732H241.1127
	c-7.7953,0-14.1732,6.378-14.1732,14.1732V394.2479z"/>
</svg>
