<?xml version="1.0" encoding="utf-8"?>
<!-- Generator: Adobe Illustrator 18.0.0, SVG Export Plug-In . SVG Version: 6.00 Build 0)  -->
<!DOCTYPE svg PUBLIC "-//W3C//DTD SVG 1.1//EN" "http://www.w3.org/Graphics/SVG/1.1/DTD/svg11.dtd">
<svg version="1.1" id="Ebene_1" xmlns="http://www.w3.org/2000/svg" xmlns:xlink="http://www.w3.org/1999/xlink" x="0px" y="0px"
	 viewBox="238.2 279.8 144.7 144.7" enable-background="new 238.2 279.8 144.7 144.7" xml:space="preserve">
<path fill="none" stroke="#706F6F" stroke-width="3" stroke-linecap="round" stroke-linejoin="round" d="M239.7,408.9
	c0,7.8,6.4,14.2,14.2,14.2h57.9v-50.2h-19.5v-30.3h19.5v-12.8c0-10.4,3.2-19,9.2-25c5.8-5.8,14.1-8.8,23.8-8.8c9,0,16.2,0.7,18,0.9
	l3.5,0.5V325l-16.1,0c-3.1,0-5.3,0.5-6.2,1.6c-0.8,0.9-1.2,2.6-1.2,5.4v10.6h23.1l-3.9,30.3h-19.1v50.2h24.4
	c7.8,0,14.2-6.4,14.2-14.2V295.5c0-7.8-6.4-14.2-14.2-14.2H253.9c-7.8,0-14.2,6.4-14.2,14.2V408.9z"/>
</svg>
