<?xml version="1.0" encoding="utf-8"?>
<!-- Generator: Adobe Illustrator 18.0.0, SVG Export Plug-In . SVG Version: 6.00 Build 0)  -->
<!DOCTYPE svg PUBLIC "-//W3C//DTD SVG 1.1//EN" "http://www.w3.org/Graphics/SVG/1.1/DTD/svg11.dtd">
<svg version="1.1" id="Ebene_1" xmlns="http://www.w3.org/2000/svg" xmlns:xlink="http://www.w3.org/1999/xlink" x="0px" y="0px"
	 viewBox="235.1339 250.7364 141.7323 141.7323" enable-background="new 235.1339 250.7364 141.7323 141.7323" xml:space="preserve"
	>
<path fill="#C6C6C6" d="M235.1339,378.2755c0,7.7963,6.3969,14.1932,14.1932,14.1932h57.8724v-50.1761h-19.4907v-30.2855h19.4907
	v-12.7939c0-10.395,3.1985-18.9909,9.1956-24.9881c5.7972-5.7972,14.0933-8.7958,23.7886-8.7958
	c8.9957,0,16.1923,0.6997,17.9914,0.8996l3.4983,0.4998v27.5868h-16.0923c-3.0985,0-5.2975,0.4998-6.1971,1.5992
	c-0.7996,0.8996-1.1994,2.5988-1.1994,5.3974v10.5949h23.089l-3.8981,30.2855h-19.0909v50.1761h24.3884
	c7.7963,0,14.1932-6.3969,14.1932-14.1932V264.9297c0-7.7963-6.3969-14.1932-14.1932-14.1932H249.3271
	c-7.7963,0-14.1932,6.3969-14.1932,14.1932V378.2755z"/>
</svg>
