<?xml version="1.0" encoding="utf-8"?>
<!-- Generator: Adobe Illustrator 18.0.0, SVG Export Plug-In . SVG Version: 6.00 Build 0)  -->
<!DOCTYPE svg PUBLIC "-//W3C//DTD SVG 1.1//EN" "http://www.w3.org/Graphics/SVG/1.1/DTD/svg11.dtd">
<svg version="1.1" id="Ebene_1" xmlns="http://www.w3.org/2000/svg" xmlns:xlink="http://www.w3.org/1999/xlink" x="0px" y="0px"
	 viewBox="0.0001 103.9622 612 584.0762" enable-background="new 0.0001 103.9622 612 584.0762" xml:space="preserve">
<path fill="#C6C6C6" d="M204.0786,450.669c-1.0911-1.6156-1.8952-2.7028-2.5921-3.8554
	c-4.8197-7.9688-10.247-15.6471-14.2769-23.9989c-6.3938-13.252-7.2975-27.2237-2.5284-41.3435
	c1.4612-4.3259,2.9963-8.627,4.7829-13.7596c-3.9026,0.3025-7.2425,0.6003-10.5876,0.8141
	c-24.7858,1.5841-49.4243,0.1948-71.8396-11.2334c-38.2944-19.5237-62.2271-50.5899-67.818-93.7027
	c-5.7039-43.9814,10.5517-80.8956,41.0107-111.6817c22.8619-23.1078,50.9218-37.1059,83.1315-42.6947
	c22.7273-3.9433,45.5789-5.3464,68.614-5.246c44.213,0.1935,88.4277,0.0563,132.6415,0.0563c1.3746,0,2.7496,0,4.1242,0
	c0.0852,0.2051,0.1705,0.4099,0.2553,0.615c-1.3508,0.8093-2.6951,1.6299-4.0532,2.4267
	c-12.4478,7.2992-24.8459,14.6863-37.3954,21.8063c-2.3012,1.3058-5.2114,2.0943-7.8575,2.1406
	c-12.5193,0.219-25.0446,0.0978-37.5673,0.0978c-1.3534,0-2.7067,0-4.0601,0c-0.1021,0.2778-0.2047,0.5553-0.3069,0.8331
	c0.8011,0.67,1.5897,1.3555,2.4051,2.0073c27.2761,21.7955,44.0269,49.5693,47.8061,84.6077
	c1.9775,18.3348,0.6271,36.4796-4.061,54.3284c-5.3763,20.4685-17.9297,36.4836-32.3395,51.2395
	c-5.0811,5.2032-10.5288,10.0765-16.0661,14.7993c-7.7779,6.6335-13.9402,14.5677-19.4056,23.0909
	c-7.4174,11.5675-7.8173,29.4211,2.2099,41.1146c8.0709,9.4121,17.2463,17.3965,26.8112,25.0632
	c15.9843,12.8118,30.9584,26.6234,44.5164,42.0502c12.9711,14.759,20.7174,31.6994,23.8764,50.9366
	c5.2967,32.2538-0.1385,62.298-18.6356,89.5568c-19.3099,28.4564-45.2872,48.5813-77.2709,61.0057
	c-22.5399,8.756-45.9901,13.7558-70.0517,15.2329c-16.1449,0.9911-32.4109,1.4386-48.5548,0.6812
	c-26.3049-1.2339-51.9883-6.1519-75.7924-18.118c-19.1424-9.6225-35.4993-22.8524-47.6944-40.5446
	c-18.3872-26.6754-19.5233-55.0737-8.1471-84.9761c11.4528-30.1036,33.7127-49.2339,61.3095-63.4441
	c27.8037-14.3162,57.3442-22.6806,88.4553-25.5379c14.8624-1.3651,29.7375-2.589,44.606-3.887
	C202.228,451.1066,202.7136,450.9534,204.0786,450.669z M201.5394,657.0493c1.9121-0.0905,3.8251-0.1683,5.7364-0.2736
	c17.3099-0.9517,34.1763-3.9852,50.2298-10.7806c61.6506-26.0955,62.0457-98.4453,22.8-130.4451
	c-17.6025-14.3521-35.6547-28.1538-53.5697-42.1194c-1.2231-0.9535-3.0145-1.6901-4.5327-1.6741
	c-14.5275,0.1532-29.1718-0.5761-43.5521,1.021c-22.3391,2.4808-44.2117,7.6377-64.8988,16.9269
	c-21.2485,9.5411-37.0748,24.6321-45.0704,46.6099c-10.5262,28.9337-4.3341,63.5817,24.6923,88.1169
	C124.7926,650.9875,162.2357,656.9896,201.5394,657.0493z M265.737,271.2264c-0.3419-0.0455-0.6838-0.0913-1.0253-0.1368
	c0.0403-26.1201-5.4576-51.9982-16.6473-78.0538c-6.4752-15.078-14.0046-29.4587-25.4995-41.5257
	c-28.7446-30.1759-73.5605-30.5693-101.1205,0.0043c-12.1587,13.4879-17.4472,30.4628-18.8823,48.4068
	c-2.2172,27.721,3.7853,54.0307,14.6776,79.3795c7.4139,17.2537,16.685,33.2514,30.2235,46.5981
	c17.973,17.7185,38.9522,26.607,64.2842,21.7414c24.4824-4.7024,42.8449-17.4554,49.1989-42.8163
	C263.6803,293.9096,264.2075,282.4425,265.737,271.2264z"/>
<path fill="#C6C6C6" d="M483.1265,343.2336c0-27.5332,0-54.5422,0-81.7984c15.6026,0,30.7312,0,46.3817,0c0,1.7,0,3.1859,0,4.6712
	c0,24.0214-0.0017,48.0428,0.0017,72.0643c0.0009,5.0534,0.0091,5.0608,4.8993,5.0616c24.0214,0.0031,48.0428-0.0022,72.0643,0.0043
	c5.2261,0.0013,5.4421,0.2116,5.4468,5.3495c0.0112,12.3942-0.116,24.7901,0.0779,37.1808c0.0563,3.604-1.1686,4.5033-4.6284,4.4843
	c-24.404-0.1333-48.8093,0.0039-73.2133-0.1502c-3.6927-0.0234-4.7518,1.0262-4.7275,4.7232
	c0.1558,23.7648,0.0151,47.5317,0.1523,71.2965c0.019,3.3235-0.8448,4.4488-4.2562,4.4024
	c-12.6474-0.1714-25.2995-0.1601-37.9469-0.0061c-3.3058,0.0403-4.3488-0.9093-4.3276-4.3289
	c0.1485-23.6371,0.0797-47.2755,0.0766-70.9139c-0.0009-5.0794-0.0082-5.0911-4.9348-5.0919
	c-23.6379-0.0043-47.2763-0.0004-70.9143-0.0039c-5.0755-0.0009-5.2685-0.1645-5.2759-5.0755
	c-0.0186-12.6495,0.1021-25.3008-0.0788-37.9477c-0.0476-3.327,1.1508-3.9978,4.2077-3.9835
	c23.8933,0.1104,47.787,0.061,71.6808,0.061C479.336,343.2336,480.8607,343.2336,483.1265,343.2336z"/>
</svg>
