<?xml version="1.0" encoding="utf-8"?>
<!-- Generator: Adobe Illustrator 18.0.0, SVG Export Plug-In . SVG Version: 6.00 Build 0)  -->
<!DOCTYPE svg PUBLIC "-//W3C//DTD SVG 1.1//EN" "http://www.w3.org/Graphics/SVG/1.1/DTD/svg11.dtd">
<svg version="1.1" id="Ebene_1" xmlns="http://www.w3.org/2000/svg" xmlns:xlink="http://www.w3.org/1999/xlink" x="0px" y="0px"
	 viewBox="0 0 141.4039 134.952" enable-background="new 0 0 141.4039 134.952" xml:space="preserve">
<path fill="#9D9D9C" d="M47.1528,80.1074c-0.2521-0.3733-0.4379-0.6245-0.5989-0.8908c-1.1136-1.8412-2.3676-3.6153-3.2987-5.545
	c-1.4773-3.0619-1.6861-6.2901-0.5842-9.5525c0.3376-0.9995,0.6923-1.9933,1.1051-3.1792
	c-0.9017,0.0699-1.6734,0.1387-2.4463,0.1881c-5.7268,0.366-11.4196,0.045-16.5987-2.5955
	c-8.848-4.511-14.3777-11.6889-15.6695-21.6502c-1.3179-10.162,2.438-18.6911,9.4756-25.8043
	c5.2823-5.3391,11.7656-8.5734,19.2077-9.8647c5.2512-0.9111,10.5311-1.2353,15.8534-1.2121
	c10.2155,0.0447,20.4314,0.013,30.6471,0.013c0.3176,0,0.6353,0,0.9529,0c0.0197,0.0474,0.0394,0.0947,0.059,0.1421
	c-0.3121,0.187-0.6227,0.3766-0.9365,0.5607c-2.8761,1.6865-5.7407,3.3933-8.6403,5.0384
	c-0.5317,0.3017-1.2041,0.4839-1.8155,0.4946c-2.8926,0.0506-5.7866,0.0226-8.68,0.0226c-0.3127,0-0.6254,0-0.9381,0
	c-0.0236,0.0642-0.0473,0.1283-0.0709,0.1925c0.1851,0.1548,0.3673,0.3132,0.5557,0.4638
	c6.3022,5.0359,10.1725,11.4531,11.0457,19.5488c0.4569,4.2363,0.1449,8.4287-0.9383,12.5527
	c-1.2422,4.7293-4.1427,8.4296-7.4721,11.839c-1.174,1.2022-2.4327,2.3282-3.7121,3.4194
	c-1.7971,1.5327-3.2209,3.3659-4.4837,5.3352c-1.7138,2.6727-1.8062,6.7978,0.5106,9.4996
	c1.8648,2.1747,3.9848,4.0195,6.1948,5.7909c3.6932,2.9602,7.153,6.1514,10.2856,9.7158c2.997,3.4101,4.7868,7.3242,5.5167,11.769
	c1.2238,7.4523-0.032,14.3941-4.3058,20.6923c-4.4616,6.5749-10.4637,11.2248-17.8536,14.0955
	c-5.2079,2.0231-10.6261,3.1783-16.1856,3.5196c-3.7303,0.229-7.4886,0.3324-11.2187,0.1574
	c-6.0778-0.2851-12.012-1.4214-17.512-4.1862c-4.4229-2.2233-8.2022-5.2801-11.0199-9.3679
	c-4.2484-6.1634-4.5109-12.7249-1.8824-19.6339c2.6462-6.9555,7.7894-11.3756,14.1657-14.6589
	c6.4241-3.3078,13.2495-5.2404,20.4378-5.9006c3.434-0.3154,6.8709-0.5982,10.3063-0.8981
	C46.7252,80.2085,46.8374,80.1731,47.1528,80.1074z M46.5661,127.792c0.4418-0.0209,0.8838-0.0389,1.3254-0.0632
	c3.9995-0.2199,7.8965-0.9208,11.6057-2.4909c14.2445-6.0294,14.3358-22.746,5.268-30.1396
	c-4.0671-3.3161-8.2381-6.505-12.3774-9.7318c-0.2826-0.2203-0.6965-0.3905-1.0473-0.3868
	c-3.3566,0.0354-6.7402-0.1331-10.0628,0.2359c-5.1615,0.5732-10.2152,1.7647-14.995,3.911
	c-4.9095,2.2045-8.5662,5.6913-10.4136,10.7693c-2.4321,6.6852-1.0014,14.6907,5.7052,20.3596
	C28.8336,126.3914,37.4849,127.7782,46.5661,127.792z M61.3991,38.6468c-0.079-0.0105-0.158-0.0211-0.2369-0.0316
	c0.0093-6.0351-1.261-12.0143-3.8464-18.0345c-1.4961-3.4838-3.2358-6.8065-5.8917-9.5946
	C44.7826,4.0139,34.4278,3.923,28.06,10.9871c-2.8093,3.1164-4.0312,7.0385-4.3628,11.1845
	c-0.5123,6.405,0.8746,12.4839,3.3913,18.3408c1.713,3.9865,3.8551,7.6828,6.9832,10.7666c4.1527,4.0939,9,6.1476,14.853,5.0234
	c5.6567-1.0865,9.8994-4.0331,11.3675-9.8928C60.9239,43.8878,61.0457,41.2383,61.3991,38.6468z"/>
<path fill="#9D9D9C" d="M111.6274,55.2842c0-6.3616,0-12.6021,0-18.8997c3.605,0,7.1005,0,10.7166,0c0,0.3928,0,0.7361,0,1.0793
	c0,5.5502-0.0004,11.1004,0.0004,16.6506c0.0002,1.1676,0.0021,1.1693,1.132,1.1695c5.5502,0.0007,11.1004-0.0005,16.6506,0.001
	c1.2075,0.0003,1.2574,0.0489,1.2585,1.236c0.0026,2.8637-0.0268,5.7278,0.018,8.5907c0.013,0.8327-0.27,1.0405-1.0694,1.0361
	c-5.6386-0.0308-11.2775,0.0009-16.9161-0.0347c-0.8532-0.0054-1.0979,0.2371-1.0923,1.0913
	c0.036,5.4909,0.0035,10.9823,0.0352,16.4732c0.0044,0.7679-0.1952,1.0279-0.9834,1.0172c-2.9222-0.0396-5.8455-0.037-8.7677-0.0014
	c-0.7638,0.0093-1.0048-0.2101-0.9999-1.0002c0.0343-5.4614,0.0184-10.9231,0.0177-16.3848
	c-0.0002-1.1736-0.0019-1.1763-1.1402-1.1765c-5.4616-0.001-10.9233-0.0001-16.3849-0.0009
	c-1.1727-0.0002-1.2173-0.038-1.219-1.1727c-0.0043-2.9227,0.0236-5.8458-0.0182-8.7679c-0.011-0.7687,0.2659-0.9237,0.9722-0.9204
	c5.5206,0.0255,11.0413,0.0141,16.562,0.0141C110.7516,55.2842,111.1039,55.2842,111.6274,55.2842z"/>
<path fill="#FFFFFF" d="M46.5661,127.792c-9.0812-0.0138-17.7325-1.4005-24.9918-7.5365
	c-6.7067-5.6688-8.1373-13.6744-5.7052-20.3596c1.8474-5.078,5.5041-8.5648,10.4136-10.7693
	c4.7798-2.1463,9.8336-3.3378,14.995-3.911c3.3226-0.369,6.7062-0.2005,10.0628-0.2359c0.3508-0.0037,0.7647,0.1665,1.0473,0.3868
	c4.1393,3.2268,8.3103,6.4156,12.3774,9.7318c9.0679,7.3936,8.9765,24.1102-5.268,30.1396
	c-3.7092,1.57-7.6062,2.2709-11.6057,2.4909C47.4499,127.753,47.0079,127.771,46.5661,127.792z"/>
<path fill="#FFFFFF" d="M61.3991,38.6468c-0.3535,2.5915-0.4752,5.241-1.107,7.7628c-1.468,5.8597-5.7108,8.8063-11.3675,9.8928
	c-5.853,1.1242-10.7003-0.9295-14.853-5.0234c-3.1281-3.0837-5.2701-6.7801-6.9832-10.7666
	c-2.5167-5.8568-3.9035-11.9358-3.3913-18.3408c0.3316-4.146,1.5535-8.0681,4.3628-11.1845
	c6.3678-7.0641,16.7226-6.9732,23.3641-0.001c2.6559,2.7881,4.3956,6.1108,5.8917,9.5946
	c2.5854,6.0202,3.8557,11.9994,3.8464,18.0345C61.2411,38.6258,61.3201,38.6363,61.3991,38.6468z"/>
</svg>
