<?xml version="1.0" encoding="utf-8"?>
<!-- Generator: Adobe Illustrator 18.0.0, SVG Export Plug-In . SVG Version: 6.00 Build 0)  -->
<!DOCTYPE svg PUBLIC "-//W3C//DTD SVG 1.1//EN" "http://www.w3.org/Graphics/SVG/1.1/DTD/svg11.dtd">
<svg version="1.1" id="Ebene_1" xmlns="http://www.w3.org/2000/svg" xmlns:xlink="http://www.w3.org/1999/xlink" x="0px" y="0px"
	 viewBox="270.1959 248.0633 89.7519 143.7323" enable-background="new 270.1959 248.0633 89.7519 143.7323" xml:space="preserve">
<g>
	<path fill="none" stroke="#575756" stroke-width="2" stroke-miterlimit="10" d="M332.9612,313.9357
		c-10.2188-5.7301-20.7815-11.0738-31.3084-16.4427c-1.1193-0.571-3.3579-0.7634-4.4136-0.2587
		c-14.5886,6.9872-15.344,17.408-3.5865,24.4203c10.9901,6.5534,22.855,12.1889,34.4158,18.1272
		c1.0378,0.5331,2.8012,0.6908,4.002,0.4132c5.8152-1.3517,11.9246-8.1448,11.8749-13.4096
		C343.0626,321.3961,338.6669,317.1359,332.9612,313.9357z"/>
	<path fill="none" stroke="#575756" stroke-width="2" stroke-miterlimit="10" d="M339.1679,345.9094
		c3.2406-1.2712,4.519-1.8722,6.2704-2.5378c16.849-6.8436,17.8351-27.2546,3.5308-36.2559
		c-7.4971-4.7191-15.8808-8.5392-23.7378-12.9097c-8.3003-4.6165-16.9027-8.9918-24.5291-14.244
		c-6.4831-4.4651-5.9483-11.5233-0.1233-15.6856c7.8569-5.6165,26.5092-6.0045,31.9963,5.5203
		c2.9961,6.6969,2.0437,5.8594,6.4295,5.8594c0.9086,0,9.2367,0.0126,10.1432,0.0252c3.6024,0.0457,3.2923-0.0252,2.0319-4.2128
		c-2.8907-9.8262-9.6204-16.1146-22.0598-20.1303c0,0-11.9424-4.9273-28.6822-0.2792
		c-19.859,5.5172-26.7994,22.1633-14.1472,35.3743c1.2764,1.3312,2.7098,2.899,4.1313,4.4368
		c-2.2863,1.0536-2.2863,1.0536-3.1989,1.4226c-18.1115,7.3468-21.1493,26.1017-7.7018,35.8538
		c7.5627,5.4872,16.3341,9.935,24.6742,14.7266c8.9543,5.1465,18.3958,9.801,26.9604,15.3197
		c7.2227,4.6513,7.0856,12.5611,0.9205,17.1651c-6.4851,4.8421-23.8889,5.5124-32.3303-1.0851
		c-4.1491-3.2428-5.02-4.574-7.2566-7.9256c-0.9026-1.3517-1.4274-3.8926-3.7455-3.3879c-3.8131,0.8312-7.7535,1.5489-11.5568,2.552
		c-0.2783,0.0741-0.2187,1.3627-0.0417,2.0425c2.0954,7.9808,6.9265,14.6541,16.1373,18.5656
		c13.9962,5.9446,28.6205,6.0913,43.0759,1.1798c18.2109-6.1875,22.6423-25.138,8.837-36.4373
		C343.4901,349.4661,341.1879,347.6823,339.1679,345.9094z M332.0705,340.1951c-1.2008,0.2776-2.9642,0.1199-4.002-0.4132
		c-11.5607-5.9383-23.4256-11.5738-34.4158-18.1272c-11.7575-7.0124-11.0021-17.4332,3.5865-24.4203
		c1.0557-0.5047,3.2943-0.3123,4.4136,0.2587c10.5269,5.3689,21.0896,10.7126,31.3084,16.4427
		c5.7058,3.2002,10.1015,7.4604,10.9842,12.8498C343.995,332.0503,337.8857,338.8434,332.0705,340.1951z"/>
</g>
</svg>
