<?xml version="1.0" encoding="utf-8"?>
<!-- Generator: Adobe Illustrator 18.0.0, SVG Export Plug-In . SVG Version: 6.00 Build 0)  -->
<!DOCTYPE svg PUBLIC "-//W3C//DTD SVG 1.1//EN" "http://www.w3.org/Graphics/SVG/1.1/DTD/svg11.dtd">
<svg version="1.1" id="Ebene_1" xmlns="http://www.w3.org/2000/svg" xmlns:xlink="http://www.w3.org/1999/xlink" x="0px" y="0px"
	 viewBox="56.0102 63.176 516.528 516.6014" enable-background="new 56.0102 63.176 516.528 516.6014" xml:space="preserve">
<path fill="#C6C6C6" d="M56.0102,321.4645C56.047,178.8257,171.6476,63.176,314.2865,63.176l0,0
	c142.6572,0,258.2518,115.6557,258.2518,258.2885l0,0c0,142.6572-115.6007,258.2884-258.2518,258.313l0,0
	C171.6476,579.753,56.047,464.134,56.0102,321.4645L56.0102,321.4645z M100.9188,321.4645
	c0.257,117.8406,95.5516,213.1657,213.3676,213.3921l0,0c117.8284-0.2264,213.1413-95.5515,213.3432-213.3922l0,0
	c-0.2019-117.8161-95.5148-213.1535-213.3432-213.3677l0,0C196.4765,108.3172,101.1758,203.6484,100.9188,321.4645
	L100.9188,321.4645z"/>
<path fill="#C6C6C6" d="M314.2681,456.129c-34.376,0.0122-68.9785-13.1947-95.2027-39.4434l0,0
	c-26.2058-26.2058-39.4618-60.7349-39.4495-95.0987l0,0c-0.0122-34.4128,13.158-69.0764,39.474-95.3129l0,0
	c26.2242-26.2854,60.8267-39.4862,95.1783-39.4373l0,0c34.4128-0.049,68.9969,13.1825,95.2394,39.4373l0,0l-31.5914,31.6159
	c-17.644-17.6195-40.545-26.3344-63.648-26.3588l0,0c-23.0785,0.0245-45.9551,8.7394-63.6051,26.3588l0,0
	c-17.6072,17.595-26.3099,40.5205-26.3344,63.697l0,0c0.0245,23.0479,8.7638,45.8878,26.3711,63.5195l0,0
	c17.5889,17.5705,40.4715,26.2976,63.5684,26.3221l0,0c23.103-0.0245,46.0102-8.7516,63.6052-26.3466l0,0l0.049,0.0245
	l31.5792,31.5792c-26.2303,26.2487-60.7716,39.4434-95.1476,39.4434l0,0C314.3354,456.129,314.2987,456.129,314.2681,456.129
	L314.2681,456.129z"/>
</svg>
