<?xml version="1.0" encoding="utf-8"?>
<!-- Generator: Adobe Illustrator 18.0.0, SVG Export Plug-In . SVG Version: 6.00 Build 0)  -->
<!DOCTYPE svg PUBLIC "-//W3C//DTD SVG 1.1//EN" "http://www.w3.org/Graphics/SVG/1.1/DTD/svg11.dtd">
<svg version="1.1" id="Ebene_1" xmlns="http://www.w3.org/2000/svg" xmlns:xlink="http://www.w3.org/1999/xlink" x="0px" y="0px"
	 viewBox="55.2076 147.1241 545.829 443.6641" enable-background="new 55.2076 147.1241 545.829 443.6641" xml:space="preserve">
<path fill="#C6C6C6" d="M585.972,155.2889c-21.6364,12.845-45.6338,22.1629-71.111,27.1558
	c-20.4271-21.7219-49.5458-35.3206-81.7797-35.3206c-61.8221,0-111.951,50.1431-111.951,111.9368
	c0,8.7767,0.9389,17.3686,2.8733,25.5337c-93.0886-4.6656-175.6363-49.2327-230.8294-116.9867
	c-9.6444,16.5437-15.1638,35.7619-15.1638,56.2741c0,38.8343,19.7443,73.1451,49.7877,93.2307
	c-18.3502-0.5688-35.6337-5.605-50.7408-13.9691c0,0.4694,0,0.9103,0,1.3941c0,54.3112,38.621,99.5184,89.8594,109.8598
	c-9.3744,2.5463-19.2749,3.9404-29.5169,3.9404c-7.1554,0-14.1825-0.7255-21.0248-2.0341
	c14.2677,44.4816,55.5914,76.9003,104.6535,77.7684c-38.3507,30.0573-86.6303,47.981-139.1064,47.981
	c-9.0328,0-17.9948-0.6116-26.7145-1.579c49.5886,31.7787,108.4657,50.3138,171.6962,50.3138
	c205.9926,0,318.6408-170.6436,318.6408-318.6408c0-4.8509-0.0993-9.6872-0.3554-14.481
	c21.9067-15.7896,40.8685-35.5058,55.8474-58.0807c-20.1144,8.9477-41.6653,14.9647-64.2972,17.6389
	C559.8264,203.3694,577.5935,181.4203,585.972,155.2889z"/>
<path fill="#C6C6C6" d="M545.189,257.6664c0.2561,4.7939,0.3554,9.6302,0.3554,14.481
	c0,147.9971-112.648,318.6408-318.6407,318.6408c-63.2304,0-122.1075-18.5351-171.6962-50.3138
	c8.7201,0.9674,17.6816,1.579,26.7145,1.579c52.4761,0,100.7557-17.9235,139.1064-47.9812
	c-49.0622-0.8677-90.3858-33.2865-104.6535-77.7684c6.8423,1.3087,13.8694,2.0341,21.0249,2.0341
	c10.242,0,20.1425-1.3941,29.5169-3.9404c-51.2384-10.3414-89.8594-55.5486-89.8594-109.8598c0-0.4838,0-0.9247,0-1.3941
	c15.1068,8.3643,32.3902,13.3999,50.7408,13.9691c-30.0434-20.0859-49.7877-54.3963-49.7877-93.2307
	c0-20.5126,5.5194-39.7305,15.1638-56.2741c55.1932,67.7539,137.7408,112.3207,230.8293,116.9867
	c-1.9344-8.1652-2.8733-16.757-2.8733-25.5337c0-61.7935,50.1289-111.9368,111.951-111.9368
	c32.2339,0,61.3526,13.599,81.7797,35.3206c25.4772-4.993,49.4746-14.3104,71.111-27.1558
	c-8.3785,26.1314-26.1456,48.0805-49.2328,61.9356c22.632-2.6742,44.1827-8.6916,64.2972-17.6389
	C586.0576,222.1606,567.0954,241.8764,545.189,257.6664z"/>
</svg>
