<?xml version="1.0" encoding="utf-8"?>
<!-- Generator: Adobe Illustrator 18.0.0, SVG Export Plug-In . SVG Version: 6.00 Build 0)  -->
<!DOCTYPE svg PUBLIC "-//W3C//DTD SVG 1.1//EN" "http://www.w3.org/Graphics/SVG/1.1/DTD/svg11.dtd">
<svg version="1.1" id="Ebene_1" xmlns="http://www.w3.org/2000/svg" xmlns:xlink="http://www.w3.org/1999/xlink" x="0px" y="0px"
	 viewBox="225.1817 342.6461 158.9147 121.0997" enable-background="new 225.1817 342.6461 158.9147 121.0997" xml:space="preserve"
	>
<path fill="none" stroke="#706F6F" stroke-width="2" stroke-miterlimit="10" d="M373.3523,348.1622
	c-5.6182,3.3354-11.8495,5.7549-18.465,7.0514c-5.3042-5.6404-12.8653-9.1715-21.2353-9.1715
	c-16.053,0-29.0697,13.0204-29.0697,29.066c0,2.279,0.2438,4.51,0.7461,6.6302c-24.1718-1.2115-45.6065-12.784-59.9382-30.3773
	c-2.5043,4.2958-3.9375,9.2861-3.9375,14.6124c0,10.0839,5.1269,18.9932,12.9281,24.2087
	c-4.7649-0.1477-9.2528-1.4554-13.1756-3.6273c0,0.1219,0,0.2364,0,0.362c0,14.1027,10.0285,25.8414,23.3333,28.5267
	c-2.4342,0.6612-5.005,1.0232-7.6645,1.0232c-1.858,0-3.6827-0.1884-5.4594-0.5282c3.7048,11.5503,14.4351,19.9683,27.1748,20.1937
	c-9.9583,7.8048-22.4948,12.459-36.121,12.459c-2.3455,0-4.6726-0.1588-6.9368-0.41c12.8764,8.2518,28.1647,13.0647,44.5834,13.0647
	c53.489,0,82.7397-44.3101,82.7397-82.7397c0-1.2596-0.0258-2.5154-0.0923-3.7602c5.6884-4.1,10.6121-9.2196,14.5016-15.0815
	c-5.223,2.3234-10.819,3.8858-16.6957,4.5802C366.5632,360.647,371.1767,354.9476,373.3523,348.1622z"/>
<path fill="none" stroke="#706F6F" stroke-width="2" stroke-miterlimit="10" d="M362.7624,374.746
	c0.0665,1.2448,0.0923,2.5006,0.0923,3.7602c0,38.4296-29.2507,82.7397-82.7397,82.7397c-16.4187,0-31.707-4.8129-44.5834-13.0647
	c2.2643,0.2512,4.5913,0.41,6.9368,0.41c13.6262,0,26.1627-4.6541,36.121-12.459c-12.7397-0.2253-23.47-8.6433-27.1748-20.1937
	c1.7767,0.3398,3.6014,0.5282,5.4594,0.5282c2.6595,0,5.2303-0.362,7.6645-1.0232c-13.3048-2.6853-23.3333-14.424-23.3333-28.5267
	c0-0.1256,0-0.2401,0-0.362c3.9227,2.1719,8.4106,3.4795,13.1756,3.6273c-7.8012-5.2156-12.9281-14.1248-12.9281-24.2087
	c0-5.3264,1.4332-10.3166,3.9375-14.6124c14.3317,17.5933,35.7664,29.1657,59.9382,30.3773
	c-0.5023-2.1202-0.7461-4.3512-0.7461-6.6302c0-16.0456,13.0167-29.066,29.0697-29.066c8.37,0,15.9311,3.5312,21.2353,9.1715
	c6.6155-1.2965,12.8468-3.7159,18.465-7.0514c-2.1756,6.7854-6.7891,12.4848-12.784,16.0825
	c5.8767-0.6944,11.4727-2.2569,16.6957-4.5802C373.3745,365.5264,368.4507,370.6459,362.7624,374.746z"/>
</svg>
